<?xml version="1.0" encoding="utf-8"?>
<!-- Generator: Adobe Illustrator 21.0.0, SVG Export Plug-In . SVG Version: 6.00 Build 0)  -->
<svg version="1.1" id="Capa_1" xmlns="http://www.w3.org/2000/svg" xmlns:xlink="http://www.w3.org/1999/xlink" x="0px" y="0px"
	 viewBox="0 0 48 48" style="enable-background:new 0 0 48 48;" xml:space="preserve">
<style type="text/css">
	.st0{fill:#003DA5;}
</style>
<path class="st0" d="M24,4C13,4,4,13,4,24c0,11,9,20,20,20s20-9,20-20C44,13,35,4,24,4z M24,36c-1.1,0-2-0.9-2-2s0.9-2,2-2h0
	c1.1,0,2,0.9,2,2S25.1,36,24,36z M24.5,27.9C24.3,28,24,28,23.8,28c-0.8,0-1.6-0.5-1.9-1.4c-0.3-1,0.2-2.2,1.3-2.5
	c1.2-0.4,4.6-2,4.6-4.1c0-0.9-0.3-1.9-0.9-2.6c-0.6-0.7-1.5-1.2-2.4-1.4c-0.9-0.2-1.9,0-2.7,0.5s-1.4,1.2-1.7,2.1
	c-0.4,1-1.5,1.6-2.5,1.2c-1-0.4-1.6-1.5-1.2-2.5c0.6-1.8,1.9-3.3,3.5-4.2c1.6-1,3.5-1.3,5.4-1c1.9,0.3,3.6,1.3,4.8,2.7
	c1.2,1.4,1.9,3.3,1.9,5.2C31.8,25.3,25.2,27.6,24.5,27.9z"/>
</svg>
