<?xml version="1.0" encoding="utf-8"?>
<!-- Generator: Adobe Illustrator 21.0.0, SVG Export Plug-In . SVG Version: 6.00 Build 0)  -->
<svg version="1.1" id="Capa_1" xmlns="http://www.w3.org/2000/svg" xmlns:xlink="http://www.w3.org/1999/xlink" x="0px" y="0px"
	 viewBox="0 0 24 24" style="enable-background:new 0 0 24 24;" xml:space="preserve">
<style type="text/css">
	.st0{display:none;}
</style>
<path class="st0" d="M6.5,21c-0.4,0-0.8-0.1-1.1-0.4C5.2,20.3,5,19.9,5,19.5V5.3H4V3.8h4.7V3h6.6v0.8H20v1.5h-1v14.3
	c0,0.4-0.1,0.8-0.5,1c-0.3,0.3-0.6,0.5-1,0.5H6.5z M17.5,5.3h-11v14.3h11V5.3z M9.2,17.4h1.5v-10H9.2V17.4z M13.3,17.4h1.5v-10h-1.5
	V17.4z"/>
<g>
	<path d="M19,4h-4.2c-0.4-1.2-1.5-2-2.8-2S9.6,2.8,9.2,4H5C3.9,4,3,4.9,3,6v14c0,1.1,0.9,2,2,2h14c1.1,0,2-0.9,2-2V6
		C21,4.9,20.1,4,19,4z M12,4c0.6,0,1,0.4,1,1s-0.4,1-1,1s-1-0.4-1-1S11.4,4,12,4z M16,16h-4v3l-5-5l5-5v3h4V16z"/>
</g>
</svg>
