<?xml version="1.0" encoding="utf-8"?>
<!-- Generator: Adobe Illustrator 21.0.0, SVG Export Plug-In . SVG Version: 6.00 Build 0)  -->
<svg version="1.1" id="Capa_1" xmlns="http://www.w3.org/2000/svg" xmlns:xlink="http://www.w3.org/1999/xlink" x="0px" y="0px"
	 viewBox="0 0 24 24" style="enable-background:new 0 0 24 24;" xml:space="preserve">
<style type="text/css">
	.st0{display:none;}
	.st1{fill:#FFFFFF;}
</style>
<path class="st0" d="M6.5,21c-0.4,0-0.8-0.1-1.1-0.4C5.2,20.3,5,19.9,5,19.5V5.3H4V3.8h4.7V3h6.6v0.8H20v1.5h-1v14.3
	c0,0.4-0.1,0.8-0.5,1c-0.3,0.3-0.6,0.5-1,0.5h-11V21z M17.5,5.3h-11v14.3h11V5.3z M9.2,17.4h1.5v-10H9.2V17.4z M13.3,17.4h1.5v-10
	h-1.5V17.4z"/>
<g>
	<path class="st1" d="M12,4.5C7,4.5,2.7,7.6,1,12c1.7,4.4,6,7.5,11,7.5s9.3-3.1,11-7.5C21.3,7.6,17,4.5,12,4.5z M12,17
		c-2.8,0-5-2.2-5-5s2.2-5,5-5s5,2.2,5,5S14.8,17,12,17z M12,9c-1.7,0-3,1.3-3,3s1.3,3,3,3s3-1.3,3-3S13.7,9,12,9z"/>
</g>
</svg>
